<svg xmlns="http://www.w3.org/2000/svg" viewBox="0 0 94.62 94.62"><defs><style>.cls-1{fill:#fff;}.cls-2{fill:#3f3f3f;}</style></defs><g id="Layer_2" data-name="Layer 2"><g id="Layer_1-2" data-name="Layer 1"><circle class="cls-1" cx="47.31" cy="47.31" r="47.31"/><path class="cls-2" d="M86.07,59.13A40,40,0,0,1,64.77,83c-2,1-4.09,1.65-6.14,2.46-11.17,3-21.87,2.18-31.95-3.83C8.57,70.8.34,46.51,12.87,26.69c6.89-10.91,16.65-17,29.37-18.9,5.11-.75,10,0,15,.74,8.68,2.58,16.23,6.93,21.85,14.2,8.09,10.47,10.63,22.13,7.24,35C86.18,58.18,86.15,58.66,86.07,59.13ZM30,48.39c-.66,1.17-.05,1.87.6,2.62A102.26,102.26,0,0,0,44,64c1.56,1.26,4.94,1.19,6.56-.09a93.79,93.79,0,0,0,11.68-11c1.35-1.5,3.37-2.76,1.91-5.31a1.37,1.37,0,0,1,.16-1.13c.56-.94.15-1.58-.49-2.26a23.5,23.5,0,0,0-2-2.3c-4.92-4-7.75-10.77-15.3-11.33a2.71,2.71,0,0,0-2.23.43A86.46,86.46,0,0,0,33.06,41.5C31.34,43.47,28.32,45,30,48.39ZM71.52,17.74C55,3.68,33,8.45,23.49,17.75c7-.13,12.82,2.95,18.56,6.32,1.64,1,3.08,2.55,5.2,1a1.23,1.23,0,0,1,1.13.07c1.28.88,2.18.08,3.2-.54C57.6,20.91,63.76,17.62,71.52,17.74ZM24,18.58c-3.23-.44-7,3.37-6.47,8,.76,6.85,4.14,12.51,8,17.91a2.26,2.26,0,0,0,3.61,0A102.28,102.28,0,0,1,44.05,29.91c1.25-1,1.22-2.53.22-3.21C38.44,22.74,32.36,19.27,24,18.58Zm46.46,0c-7.94.59-13.8,3.8-19.45,7.47-1,.65-.84,3.7.14,4.5A103.14,103.14,0,0,1,64.71,43.79c.82,1,3.92,1.16,4.53.25,3.61-5.31,6.83-10.78,7.65-17.35C77.44,22.26,73.86,18.17,70.49,18.59ZM68.17,76.2c6.24.08,9.27-3.57,8.36-8.86C75.48,61.2,72.44,56,69,50.91c-.79-1.16-2.91-1.06-4,.18A99.27,99.27,0,0,1,50.76,64.92c-1.12.88-1.19,3.23,0,4C56.42,72.54,62.28,75.75,68.17,76.2Zm-41.79,0c5.74-.4,11.57-3.69,17.28-7.26,1.17-.73,1.09-3.14,0-4A98.06,98.06,0,0,1,29.85,51.57c-.61-.72-1.24-.71-2.14-.84-2.29-.34-3,1.1-3.85,2.55-2.92,4.81-5.72,9.69-6,15.48C17.61,73,21,76.25,26.38,76.2Zm44.77,1c-7.27.06-13.07-2.88-18.74-6.18-1.45-.84-2.73-2.21-4.58-.67a1.65,1.65,0,0,1-2-.27c-.93-.85-1.66-.43-2.51.11-5.89,3.71-12,6.84-19.29,7C35.62,87.85,56.4,89.05,71.15,77.24Zm6.67-52.41c-.24,1.72-.16,3.13-.49,4.53-1.28,5.39-4.14,10-6.87,14.7a6.74,6.74,0,0,0-.09,7.22c3.66,5.82,7,11.76,7.27,19C88.25,57.75,88.35,37.57,77.82,24.83Zm-61,45c.45-7,3.53-12.7,7.07-18.17,1.33-2.05-.42-4.48.94-6.49,0,0-.17-.24-.25-.38-4.08-6-7.64-12.28-8.08-20C6.22,36.94,6.61,57,16.82,69.8Z"/></g></g></svg>